<svg width="268" height="65" viewBox="0 0 268 65" fill="none" xmlns="http://www.w3.org/2000/svg">
<path d="M29.4625 64.1645V11.6967H48.6426V3.3419H0V11.6967H19.0122V64.1645H29.4625Z" fill="#1C1B1F"/>
<path fill-rule="evenodd" clip-rule="evenodd" d="M47.8871 41.1054V42.0662C47.8871 45.3246 48.3628 48.3462 49.3141 51.1311C50.2654 53.916 51.6504 56.3528 53.4691 58.4415C55.2877 60.5024 57.4981 62.1176 60.1002 63.2873C62.7303 64.4291 65.7101 65 69.0397 65C72.3413 65 75.2932 64.4291 77.8953 63.2873C80.4974 62.1176 82.7078 60.5024 84.5264 58.4415C86.3451 56.3528 87.7301 53.916 88.6814 51.1311C89.6327 48.3462 90.1084 45.3246 90.1084 42.0662V41.1054C90.1084 37.847 89.6327 34.8254 88.6814 32.0405C87.7301 29.2277 86.3451 26.7909 84.5264 24.7301C82.7078 22.6414 80.4834 21.0261 77.8533 19.8843C75.2512 18.7147 72.2854 18.1298 68.9558 18.1298C65.6542 18.1298 62.6883 18.7147 60.0583 19.8843C57.4562 21.0261 55.2458 22.6414 53.4271 24.7301C51.6364 26.7909 50.2654 29.2277 49.3141 32.0405C48.3628 34.8254 47.8871 37.847 47.8871 41.1054ZM58.0018 42.0662V41.1054C58.0018 39.1003 58.2116 37.2065 58.6313 35.4242C59.051 33.614 59.7085 32.0126 60.6039 30.6202C61.4992 29.2277 62.6324 28.1416 64.0034 27.3618C65.4024 26.5542 67.0532 26.1504 68.9558 26.1504C70.8584 26.1504 72.4952 26.5542 73.8662 27.3618C75.2652 28.1416 76.4123 29.2277 77.3077 30.6202C78.231 32.0126 78.9025 33.614 79.3222 35.4242C79.7699 37.2065 79.9937 39.1003 79.9937 41.1054V42.0662C79.9937 44.0992 79.7699 46.0208 79.3222 47.831C78.9025 49.6412 78.245 51.2286 77.3497 52.5932C76.4543 53.9578 75.3072 55.03 73.9082 55.8098C72.5372 56.5895 70.9144 56.9794 69.0397 56.9794C67.1091 56.9794 65.4443 56.5895 64.0454 55.8098C62.6464 55.03 61.4992 53.9578 60.6039 52.5932C59.7085 51.2286 59.051 49.6412 58.6313 47.831C58.2116 46.0208 58.0018 44.0992 58.0018 42.0662Z" fill="#1C1B1F"/>
<path d="M108.785 37.0823V0H98.6282V64.1645H108.785V49.363L113.411 44.6508L126.958 64.1645H138.667L119.943 37.7685L136.988 18.9653H124.775L111.932 33.2102L108.785 37.0823Z" fill="#1C1B1F"/>
<path fill-rule="evenodd" clip-rule="evenodd" d="M150.34 63.3708C153.054 64.4569 156.089 65 159.447 65C162.413 65 165.015 64.5962 167.253 63.7886C169.52 62.9809 171.436 61.9366 173.003 60.6555C174.57 59.3466 175.843 57.982 176.822 56.5617L171.492 51.4235C170.093 53.2059 168.442 54.5844 166.54 55.5591C164.637 56.5338 162.469 57.0212 160.034 57.0212C158.104 57.0212 156.383 56.6731 154.872 55.9769C153.361 55.2528 152.074 54.2641 151.011 53.0109C149.948 51.7577 149.136 50.2956 148.577 48.6247C148.179 47.3521 147.93 46.0014 147.83 44.5726H177.62V40.2699C177.62 37.0116 177.214 34.0317 176.403 31.3303C175.619 28.629 174.416 26.3036 172.793 24.3541C171.198 22.3768 169.184 20.8451 166.75 19.759C164.315 18.6729 161.475 18.1298 158.23 18.1298C155.292 18.1298 152.564 18.6729 150.046 19.759C147.528 20.8451 145.345 22.4186 143.499 24.4794C141.652 26.5124 140.211 28.9632 139.176 31.8316C138.14 34.7001 137.623 37.9027 137.623 41.4396V43.1105C137.623 46.2018 138.126 49.0842 139.134 51.7577C140.141 54.4312 141.582 56.7566 143.457 58.7339C145.359 60.7112 147.653 62.2569 150.34 63.3708ZM148.04 37.3458C148.145 36.574 148.282 35.836 148.451 35.1317C148.927 33.238 149.598 31.6228 150.465 30.286C151.333 28.9492 152.41 27.9327 153.697 27.2365C155.012 26.5124 156.509 26.1504 158.188 26.1504C160.426 26.1504 162.217 26.6377 163.56 27.6125C164.903 28.5872 165.896 29.8683 166.54 31.4557C167.211 33.0431 167.575 34.7419 167.631 36.5521V37.3458H148.04Z" fill="#1C1B1F"/>
<path d="M195.541 32.0425V64.1645H185.426V18.9653H194.953L195.285 24.4126C195.355 24.3227 195.427 24.2336 195.499 24.1452C197.093 22.2236 198.996 20.7476 201.206 19.7172C203.417 18.659 205.879 18.1298 208.593 18.1298C210.776 18.1298 212.748 18.4362 214.511 19.0488C216.301 19.6337 217.826 20.5945 219.085 21.9312C220.373 23.268 221.352 25.0086 222.023 27.153C222.695 29.2695 223.031 31.8734 223.031 34.9647V64.1645H212.874V34.9229C212.874 32.7506 212.552 31.0379 211.909 29.7847C211.293 28.5036 210.384 27.5985 209.181 27.0694C208.006 26.5124 206.537 26.2339 204.774 26.2339C203.039 26.2339 201.486 26.596 200.115 27.3201C198.744 28.0441 197.583 29.0328 196.632 30.286C196.228 30.8342 195.864 31.4197 195.541 32.0425Z" fill="#1C1B1F"/>
<path d="M244.793 34.2211H268V57.3203H244.793V34.2211Z" fill="#6750A4"/>
</svg>
