<svg width="162" height="141" viewBox="0 0 162 141" fill="none" xmlns="http://www.w3.org/2000/svg">
<path d="M34.2773 75V13.6719H56.5918V3.90625H0V13.6719H22.1191V75H34.2773Z" fill="white"/>
<path fill-rule="evenodd" clip-rule="evenodd" d="M55.7129 48.0469V49.1699C55.7129 52.9785 56.2663 56.5104 57.373 59.7656C58.4798 63.0208 60.0911 65.8691 62.207 68.3105C64.3229 70.7194 66.8945 72.6074 69.9219 73.9746C72.9818 75.3092 76.4486 75.9766 80.3223 75.9766C84.1634 75.9766 87.5977 75.3092 90.625 73.9746C93.6523 72.6074 96.224 70.7194 98.3398 68.3105C100.456 65.8691 102.067 63.0208 103.174 59.7656C104.281 56.5104 104.834 52.9785 104.834 49.1699V48.0469C104.834 44.2383 104.281 40.7064 103.174 37.4512C102.067 34.1634 100.456 31.3151 98.3398 28.9062C96.224 26.4648 93.6361 24.5768 90.5762 23.2422C87.5488 21.875 84.0983 21.1914 80.2246 21.1914C76.3835 21.1914 72.9329 21.875 69.873 23.2422C66.8457 24.5768 64.2741 26.4648 62.1582 28.9062C60.0749 31.3151 58.4798 34.1634 57.373 37.4512C56.2663 40.7064 55.7129 44.2383 55.7129 48.0469ZM67.4805 49.1699V48.0469C67.4805 45.7031 67.7246 43.4896 68.2129 41.4062C68.7012 39.2904 69.4661 37.4186 70.5078 35.791C71.5495 34.1634 72.8678 32.8939 74.4629 31.9824C76.0905 31.0384 78.0111 30.5664 80.2246 30.5664C82.4381 30.5664 84.3424 31.0384 85.9375 31.9824C87.5651 32.8939 88.8997 34.1634 89.9414 35.791C91.0156 37.4186 91.7969 39.2904 92.2852 41.4062C92.806 43.4896 93.0664 45.7031 93.0664 48.0469V49.1699C93.0664 51.5462 92.806 53.7923 92.2852 55.9082C91.7969 58.0241 91.0319 59.8796 89.9902 61.4746C88.9486 63.0697 87.6139 64.3229 85.9863 65.2344C84.3913 66.1458 82.5033 66.6016 80.3223 66.6016C78.0762 66.6016 76.1393 66.1458 74.5117 65.2344C72.8841 64.3229 71.5495 63.0697 70.5078 61.4746C69.4661 59.8796 68.7012 58.0241 68.2129 55.9082C67.7246 53.7923 67.4805 51.5462 67.4805 49.1699Z" fill="white"/>
<path d="M126.562 43.3444V0H114.746V75H126.562V57.6989L131.945 52.191L147.705 75H161.328L139.544 44.1465L159.375 22.168H145.166L130.225 38.8184L126.562 43.3444Z" fill="white"/>
<path fill-rule="evenodd" clip-rule="evenodd" d="M14.9082 139.072C18.0658 140.342 21.5977 140.977 25.5039 140.977C28.9544 140.977 31.9818 140.505 34.5859 139.561C37.2227 138.617 39.4525 137.396 41.2754 135.898C43.0983 134.368 44.5794 132.773 45.7188 131.113L39.5176 125.107C37.89 127.191 35.9694 128.802 33.7559 129.941C31.5423 131.081 29.0195 131.65 26.1875 131.65C23.9414 131.65 21.9395 131.243 20.1816 130.43C18.4238 129.583 16.9264 128.428 15.6895 126.963C14.4525 125.498 13.5085 123.789 12.8574 121.836C12.3941 120.348 12.1043 118.77 11.9881 117.1H46.6465V112.07C46.6465 108.262 46.1745 104.779 45.2305 101.621C44.319 98.4635 42.9193 95.7454 41.0312 93.4668C39.1758 91.1556 36.832 89.3652 34 88.0957C31.168 86.8262 27.8639 86.1914 24.0879 86.1914C20.6699 86.1914 17.4961 86.8262 14.5664 88.0957C11.6367 89.3652 9.09766 91.2044 6.94922 93.6133C4.80078 95.9896 3.12435 98.8542 1.91992 102.207C0.715495 105.56 0.113281 109.303 0.113281 113.438V115.391C0.113281 119.004 0.699219 122.373 1.87109 125.498C3.04297 128.623 4.7194 131.341 6.90039 133.652C9.11393 135.964 11.7832 137.77 14.9082 139.072ZM12.2325 108.652C12.3549 107.75 12.5143 106.888 12.7109 106.064C13.2643 103.851 14.0456 101.963 15.0547 100.4C16.0638 98.8379 17.3171 97.6497 18.8145 96.8359C20.3444 95.9896 22.0859 95.5664 24.0391 95.5664C26.6432 95.5664 28.7266 96.1361 30.2891 97.2754C31.8516 98.4147 33.0072 99.9121 33.7559 101.768C34.5371 103.623 34.9603 105.609 35.0254 107.725V108.652H12.2325Z" fill="white"/>
<path d="M67.4961 102.453V140H55.7285V87.168H66.8125L67.1984 93.5351C67.2805 93.4301 67.3635 93.3259 67.4473 93.2227C69.3027 90.9766 71.5163 89.2513 74.0879 88.0469C76.6595 86.8099 79.5241 86.1914 82.6816 86.1914C85.2207 86.1914 87.5156 86.5495 89.5664 87.2656C91.6497 87.9492 93.4238 89.0723 94.8887 90.6348C96.3861 92.1973 97.5254 94.2318 98.3066 96.7383C99.0879 99.2122 99.4785 102.256 99.4785 105.869V140H87.6621V105.82C87.6621 103.281 87.2878 101.279 86.5391 99.8145C85.8229 98.3171 84.765 97.2591 83.3652 96.6406C81.998 95.9896 80.2891 95.6641 78.2383 95.6641C76.2201 95.6641 74.4134 96.0872 72.8184 96.9336C71.2233 97.7799 69.8724 98.9355 68.7656 100.4C68.2957 101.041 67.8726 101.726 67.4961 102.453Z" fill="white"/>
<path d="M124.797 105H151.797V132H124.797V105Z" fill="#6750A4"/>
</svg>