<svg width="162" height="141" viewBox="0 0 162 141" fill="none" xmlns="http://www.w3.org/2000/svg">
<path d="M34.4805 75V13.6719H56.7949V3.90625H0.203125V13.6719H22.3223V75H34.4805Z" fill="#1C1B1F"/>
<path fill-rule="evenodd" clip-rule="evenodd" d="M55.916 48.0469V49.1699C55.916 52.9785 56.4694 56.5104 57.5762 59.7656C58.6829 63.0208 60.2943 65.8691 62.4102 68.3105C64.526 70.7194 67.0977 72.6074 70.125 73.9746C73.1849 75.3092 76.6517 75.9766 80.5254 75.9766C84.3665 75.9766 87.8008 75.3092 90.8281 73.9746C93.8555 72.6074 96.4271 70.7194 98.543 68.3105C100.659 65.8691 102.27 63.0208 103.377 59.7656C104.484 56.5104 105.037 52.9785 105.037 49.1699V48.0469C105.037 44.2383 104.484 40.7064 103.377 37.4512C102.27 34.1634 100.659 31.3151 98.543 28.9062C96.4271 26.4648 93.8392 24.5768 90.7793 23.2422C87.752 21.875 84.3014 21.1914 80.4277 21.1914C76.5866 21.1914 73.1361 21.875 70.0762 23.2422C67.0488 24.5768 64.4772 26.4648 62.3613 28.9062C60.278 31.3151 58.6829 34.1634 57.5762 37.4512C56.4694 40.7064 55.916 44.2383 55.916 48.0469ZM67.6836 49.1699V48.0469C67.6836 45.7031 67.9277 43.4896 68.416 41.4062C68.9043 39.2904 69.6693 37.4186 70.7109 35.791C71.7526 34.1634 73.071 32.8939 74.666 31.9824C76.2936 31.0384 78.2142 30.5664 80.4277 30.5664C82.6413 30.5664 84.5456 31.0384 86.1406 31.9824C87.7682 32.8939 89.1029 34.1634 90.1445 35.791C91.2188 37.4186 92 39.2904 92.4883 41.4062C93.0091 43.4896 93.2695 45.7031 93.2695 48.0469V49.1699C93.2695 51.5462 93.0091 53.7923 92.4883 55.9082C92 58.0241 91.235 59.8796 90.1934 61.4746C89.1517 63.0697 87.8171 64.3229 86.1895 65.2344C84.5944 66.1458 82.7064 66.6016 80.5254 66.6016C78.2793 66.6016 76.3424 66.1458 74.7148 65.2344C73.0872 64.3229 71.7526 63.0697 70.7109 61.4746C69.6693 59.8796 68.9043 58.0241 68.416 55.9082C67.9277 53.7923 67.6836 51.5462 67.6836 49.1699Z" fill="#1C1B1F"/>
<path d="M126.766 43.3444V0H114.949V75H126.766V57.6989L132.148 52.191L147.908 75H161.531L139.747 44.1465L159.578 22.168H145.369L130.428 38.8184L126.766 43.3444Z" fill="#1C1B1F"/>
<path fill-rule="evenodd" clip-rule="evenodd" d="M15.1113 139.072C18.2689 140.342 21.8008 140.977 25.707 140.977C29.1576 140.977 32.1849 140.505 34.7891 139.561C37.4258 138.617 39.6556 137.396 41.4785 135.898C43.3014 134.368 44.7826 132.773 45.9219 131.113L39.7207 125.107C38.0931 127.191 36.1725 128.802 33.959 129.941C31.7454 131.081 29.2227 131.65 26.3906 131.65C24.1445 131.65 22.1426 131.243 20.3848 130.43C18.627 129.583 17.1296 128.428 15.8926 126.963C14.6556 125.498 13.7116 123.789 13.0605 121.836C12.5972 120.348 12.3075 118.77 12.1912 117.1H46.8496V112.07C46.8496 108.262 46.3776 104.779 45.4336 101.621C44.5221 98.4635 43.1224 95.7454 41.2344 93.4668C39.3789 91.1556 37.0352 89.3652 34.2031 88.0957C31.3711 86.8262 28.0671 86.1914 24.291 86.1914C20.873 86.1914 17.6992 86.8262 14.7695 88.0957C11.8398 89.3652 9.30078 91.2044 7.15234 93.6133C5.00391 95.9896 3.32747 98.8542 2.12305 102.207C0.91862 105.56 0.316406 109.303 0.316406 113.438V115.391C0.316406 119.004 0.902344 122.373 2.07422 125.498C3.24609 128.623 4.92253 131.341 7.10352 133.652C9.31706 135.964 11.9863 137.77 15.1113 139.072ZM12.4356 108.652C12.558 107.75 12.7175 106.888 12.9141 106.064C13.4674 103.851 14.2487 101.963 15.2578 100.4C16.2669 98.8379 17.5202 97.6497 19.0176 96.8359C20.5475 95.9896 22.2891 95.5664 24.2422 95.5664C26.8464 95.5664 28.9297 96.1361 30.4922 97.2754C32.0547 98.4147 33.2103 99.9121 33.959 101.768C34.7402 103.623 35.1634 105.609 35.2285 107.725V108.652H12.4356Z" fill="#1C1B1F"/>
<path d="M67.6992 102.453V140H55.9316V87.168H67.0156L67.4015 93.5351C67.4836 93.4301 67.5666 93.3259 67.6504 93.2227C69.5059 90.9766 71.7194 89.2513 74.291 88.0469C76.8626 86.8099 79.7272 86.1914 82.8848 86.1914C85.4238 86.1914 87.7188 86.5495 89.7695 87.2656C91.8529 87.9492 93.627 89.0723 95.0918 90.6348C96.5892 92.1973 97.7285 94.2318 98.5098 96.7383C99.291 99.2122 99.6816 102.256 99.6816 105.869V140H87.8652V105.82C87.8652 103.281 87.4909 101.279 86.7422 99.8145C86.026 98.3171 84.9681 97.2591 83.5684 96.6406C82.2012 95.9896 80.4922 95.6641 78.4414 95.6641C76.4232 95.6641 74.6165 96.0872 73.0215 96.9336C71.4264 97.7799 70.0755 98.9355 68.9688 100.4C68.4989 101.041 68.0757 101.726 67.6992 102.453Z" fill="#1C1B1F"/>
<path d="M125 105H152V132H125V105Z" fill="#6750A4"/>
</svg>
